%TF.GenerationSoftware,KiCad,Pcbnew,7.0.8*%
%TF.CreationDate,2023-11-11T20:39:46+01:00*%
%TF.ProjectId,FirstKicadProject,46697273-744b-4696-9361-6450726f6a65,rev?*%
%TF.SameCoordinates,Original*%
%TF.FileFunction,Legend,Top*%
%TF.FilePolarity,Positive*%
%FSLAX46Y46*%
G04 Gerber Fmt 4.6, Leading zero omitted, Abs format (unit mm)*
G04 Created by KiCad (PCBNEW 7.0.8) date 2023-11-11 20:39:46*
%MOMM*%
%LPD*%
G01*
G04 APERTURE LIST*
%ADD10C,0.150000*%
%ADD11C,0.120000*%
G04 APERTURE END LIST*
D10*
X165631905Y-106014819D02*
X165631905Y-105014819D01*
X165631905Y-105014819D02*
X165870000Y-105014819D01*
X165870000Y-105014819D02*
X166012857Y-105062438D01*
X166012857Y-105062438D02*
X166108095Y-105157676D01*
X166108095Y-105157676D02*
X166155714Y-105252914D01*
X166155714Y-105252914D02*
X166203333Y-105443390D01*
X166203333Y-105443390D02*
X166203333Y-105586247D01*
X166203333Y-105586247D02*
X166155714Y-105776723D01*
X166155714Y-105776723D02*
X166108095Y-105871961D01*
X166108095Y-105871961D02*
X166012857Y-105967200D01*
X166012857Y-105967200D02*
X165870000Y-106014819D01*
X165870000Y-106014819D02*
X165631905Y-106014819D01*
X167155714Y-106014819D02*
X166584286Y-106014819D01*
X166870000Y-106014819D02*
X166870000Y-105014819D01*
X166870000Y-105014819D02*
X166774762Y-105157676D01*
X166774762Y-105157676D02*
X166679524Y-105252914D01*
X166679524Y-105252914D02*
X166584286Y-105300533D01*
X152174285Y-80359979D02*
X152317142Y-80407598D01*
X152317142Y-80407598D02*
X152364761Y-80455217D01*
X152364761Y-80455217D02*
X152412380Y-80550455D01*
X152412380Y-80550455D02*
X152412380Y-80693312D01*
X152412380Y-80693312D02*
X152364761Y-80788550D01*
X152364761Y-80788550D02*
X152317142Y-80836170D01*
X152317142Y-80836170D02*
X152221904Y-80883789D01*
X152221904Y-80883789D02*
X151840952Y-80883789D01*
X151840952Y-80883789D02*
X151840952Y-79883789D01*
X151840952Y-79883789D02*
X152174285Y-79883789D01*
X152174285Y-79883789D02*
X152269523Y-79931408D01*
X152269523Y-79931408D02*
X152317142Y-79979027D01*
X152317142Y-79979027D02*
X152364761Y-80074265D01*
X152364761Y-80074265D02*
X152364761Y-80169503D01*
X152364761Y-80169503D02*
X152317142Y-80264741D01*
X152317142Y-80264741D02*
X152269523Y-80312360D01*
X152269523Y-80312360D02*
X152174285Y-80359979D01*
X152174285Y-80359979D02*
X151840952Y-80359979D01*
X152698095Y-79883789D02*
X153269523Y-79883789D01*
X152983809Y-80883789D02*
X152983809Y-79883789D01*
X154126666Y-80883789D02*
X153555238Y-80883789D01*
X153840952Y-80883789D02*
X153840952Y-79883789D01*
X153840952Y-79883789D02*
X153745714Y-80026646D01*
X153745714Y-80026646D02*
X153650476Y-80121884D01*
X153650476Y-80121884D02*
X153555238Y-80169503D01*
X144613333Y-99334819D02*
X144280000Y-98858628D01*
X144041905Y-99334819D02*
X144041905Y-98334819D01*
X144041905Y-98334819D02*
X144422857Y-98334819D01*
X144422857Y-98334819D02*
X144518095Y-98382438D01*
X144518095Y-98382438D02*
X144565714Y-98430057D01*
X144565714Y-98430057D02*
X144613333Y-98525295D01*
X144613333Y-98525295D02*
X144613333Y-98668152D01*
X144613333Y-98668152D02*
X144565714Y-98763390D01*
X144565714Y-98763390D02*
X144518095Y-98811009D01*
X144518095Y-98811009D02*
X144422857Y-98858628D01*
X144422857Y-98858628D02*
X144041905Y-98858628D01*
X145565714Y-99334819D02*
X144994286Y-99334819D01*
X145280000Y-99334819D02*
X145280000Y-98334819D01*
X145280000Y-98334819D02*
X145184762Y-98477676D01*
X145184762Y-98477676D02*
X145089524Y-98572914D01*
X145089524Y-98572914D02*
X144994286Y-98620533D01*
D11*
%TO.C,D1*%
X168930000Y-103145000D02*
X168930000Y-100055000D01*
X163380001Y-101599538D02*
G75*
G03*
X168929999Y-103144830I2989999J-462D01*
G01*
X168930000Y-100055170D02*
G75*
G03*
X163380000Y-101600462I-2560000J-1544830D01*
G01*
X168870000Y-101600000D02*
G75*
G03*
X168870000Y-101600000I-2500000J0D01*
G01*
%TO.C,BT1*%
X138650000Y-69198970D02*
X142268000Y-69198970D01*
X138650000Y-70908970D02*
X138650000Y-69198970D01*
X138650000Y-74708970D02*
X138650000Y-76418970D01*
X142268000Y-76418970D02*
X138650000Y-76418970D01*
X145112700Y-64698970D02*
X160807300Y-64698970D01*
X149100000Y-80918970D02*
X145112700Y-80918970D01*
X151300000Y-78718970D02*
X149100000Y-80918970D01*
X154620000Y-78718970D02*
X151300000Y-78718970D01*
X154620000Y-78718970D02*
X156820000Y-80918970D01*
X160807300Y-80918970D02*
X156820000Y-80918970D01*
X163652000Y-69198970D02*
X167270000Y-69198970D01*
X167270000Y-70908970D02*
X167270000Y-69198970D01*
X167270000Y-74708970D02*
X167270000Y-76418970D01*
X167270000Y-76418970D02*
X163652000Y-76418970D01*
X145114629Y-64697181D02*
G75*
G03*
X142268001Y-69198970I7845391J-8111799D01*
G01*
X142268000Y-76418970D02*
G75*
G03*
X145114629Y-80920759I10691995J3609996D01*
G01*
X163652000Y-69198970D02*
G75*
G03*
X160805371Y-64697181I-10692000J-3610000D01*
G01*
X160805371Y-80920759D02*
G75*
G03*
X163652000Y-76418970I-7845391J8111801D01*
G01*
%TO.C,R1*%
X139470000Y-101600000D02*
X140160000Y-101600000D01*
X140160000Y-99880000D02*
X140160000Y-103320000D01*
X140160000Y-103320000D02*
X149400000Y-103320000D01*
X149400000Y-99880000D02*
X140160000Y-99880000D01*
X149400000Y-103320000D02*
X149400000Y-99880000D01*
X150090000Y-101600000D02*
X149400000Y-101600000D01*
%TD*%
M02*
